<?xml version="1.0" encoding="utf-8"?>
<!-- Generator: Adobe Illustrator 21.0.0, SVG Export Plug-In . SVG Version: 6.00 Build 0)  -->
<svg version="1.1" id="Layer_1" xmlns="http://www.w3.org/2000/svg" xmlns:xlink="http://www.w3.org/1999/xlink" x="0px" y="0px"
	 viewBox="0 0 30.6 34.6" style="enable-background:new 0 0 30.6 34.6;" xml:space="preserve">
<style type="text/css">
	.st0{display:none;}
	.st1{display:inline;}
	.st2{fill:#FFFFFF;}
</style>
<title>uq-logo</title>
<g class="st0">
	<path class="st1" d="M4.9,28.1c-0.9-1.3-1.5-3-1.5-4.9v-0.8v-13H0V8.2h12.7v1.1H8.3v14c0,1.5,0,4.4,0.1,5.3c0.2,1.4,0.7,2.3,1.6,3
		C8.2,30.9,5.9,29.5,4.9,28.1"/>
	<path class="st1" d="M15.5,31c-2.8,0-4.4-1.5-4.4-3.3c0-1.5,1-2.5,2.4-2.5s2.5,0.9,3.4,3.1c0.4,1,0.7,1.6,0.8,1.9
		c0,0.1,0.1,0.2,0.2,0.4C17.7,30.6,16.6,31,15.5,31L15.5,31z M30.6,9.4V8.2H17.9v1.1h4.5v14.2c0,2.2-0.2,3.2-1,4.6
		c0,0,0,0.1-0.1,0.1c-1.8-3.1-3.7-4.4-6.4-4.4s-4.9,1.8-4.9,4c0,0.6,0,1.2,0.5,2.1c1.1,2.1,4.1,2.6,5.1,2.6c1.1,0,2.2-0.1,3.3-0.3
		c1.5,1.5,3.3,2.4,5.3,2.4c1.1,0,2.2-0.3,3.1-0.8c2.3-1.2,3.2-2.9,3.2-6.2v-0.3h-0.8v0.3c0,1.3-0.2,2.4-0.5,3.2
		c-0.5,1.2-2,2.3-3.3,2.3s-2.6-0.8-3.2-2.1c1.2-0.6,2.3-1.5,3-2.4c0.9-1.3,1.5-3,1.5-4.9v-0.8V9.4H30.6L30.6,9.4z"/>
</g>
<g>
	<path class="st2" d="M4.8,36.6V4.3h5.5v1.6c1.7-1.4,3.7-2,5.9-2c6.2,0,11.2,4.9,11.2,11s-5,11.1-11.2,11.1c-2.2,0-4.2-0.6-5.9-2
		v12.7H4.8z M10.3,15.2c0.2,3,2.7,5.5,5.9,5.5S22,18,22,14.9c0-3.1-2.6-5.8-5.9-5.8c-3.2,0-5.8,2.6-5.9,5.5V15.2z"/>
</g>
</svg>
